<svg width="29" height="23" viewBox="0 0 29 23" fill="none" xmlns="http://www.w3.org/2000/svg">
<path fill-rule="evenodd" clip-rule="evenodd" d="M4.60925 14.0008L1.13379 10.9359L7.64017 5.19827C9.3779 3.66585 11.6814 2.81055 14.1466 2.81055C14.9548 2.81055 15.763 2.91746 16.5713 3.09565L16.248 4.12914C15.561 3.95095 14.874 3.87967 14.1466 3.87967C12.0047 3.87967 10.0245 4.62806 8.52924 5.94666L2.91193 10.9003L5.49832 13.1811L4.60925 14.0008Z" fill="black" stroke="black" stroke-width="1.5"/>
<path fill-rule="evenodd" clip-rule="evenodd" d="M14.2317 19.9687C13.6307 19.9687 13.0697 19.9303 12.5088 19.8152L12.7492 18.7021C13.23 18.7789 13.7509 18.8557 14.2718 18.8557C16.3954 18.8557 18.3588 18.0497 19.8413 16.6296L25.4108 11.2948L22.8465 8.83845L23.6879 8.03247L27.1338 11.3332L20.6828 17.5124C18.9197 19.0859 16.6358 19.9687 14.2317 19.9687Z" fill="black" stroke="black" stroke-width="1.5"/>
<path d="M24.7956 1.82197L23.936 1.02197L3.30639 20.222L4.16595 21.022L24.7956 1.82197Z" fill="black" stroke="black" stroke-width="1.5"/>
</svg>
